<?xml version="1.0" encoding="UTF-8"?>
<!-- Created with Inkscape (http://www.inkscape.org/) -->
<svg width="1056" height="816" version="1.1" viewBox="0 0 1056 816" xml:space="preserve" xmlns="http://www.w3.org/2000/svg"><defs><linearGradient id="linearGradient53" x2="1" gradientTransform="matrix(228.04 0 0 -228.04 405.47 307.6)" gradientUnits="userSpaceOnUse"><stop stop-color="#b5d7f2" offset="0"/><stop stop-color="#b5d7f2" offset=".0035963"/><stop stop-color="#80bae5" offset=".51074"/><stop stop-color="#80bae5" offset="1"/></linearGradient><linearGradient id="linearGradient89" x2="1" gradientTransform="matrix(-75.928 0 0 75.928 252.52 307.6)" gradientUnits="userSpaceOnUse"><stop stop-color="#b4d5f0" offset="0"/><stop stop-color="#90b8e2" offset=".46359"/><stop stop-color="#90b8e2" offset="1"/></linearGradient><linearGradient id="linearGradient111" x2="1" gradientTransform="matrix(55.779 0 0 -55.779 97.664 307.6)" gradientUnits="userSpaceOnUse"><stop stop-color="#739dd2" offset="0"/><stop stop-color="#91b8e1" offset=".91264"/><stop stop-color="#91b8e1" offset="1"/></linearGradient><linearGradient id="linearGradient135" x2="1" gradientTransform="matrix(-108.83 0 0 108.83 384.51 307.6)" gradientUnits="userSpaceOnUse"><stop stop-color="#b5d7f2" offset="0"/><stop stop-color="#b5d7f2" offset=".0035963"/><stop stop-color="#b4d5f0" offset=".66435"/><stop stop-color="#b4d5f0" offset="1"/></linearGradient></defs><g transform="matrix(1.3333 0 0 -1.3333 0 816)"><path d="m633.52 281.83h-228.04v51.539h228.04z" fill="url(#linearGradient53)"/><g><g font-family="Helvetica"><text transform="matrix(1 0 0 -1 26.79 346.11)" fill="#d5d5d5" font-size="82px"><tspan x="0 102.008 202.95 299.87399" y="0">EVER</tspan></text><text transform="matrix(1 0 0 -1 404.47 348.1)" fill="#d5d5d5" font-size="58px"><tspan x="0 36.888 70.585999 91.349998 134.67599 168.37399 189.138" y="0">Forward</tspan></text><text transform="matrix(1 0 0 -1 418.1 298.26)" fill="#231f20" font-size="30px"><tspan x="0 20.01 28.35 38.34 55.02 63.360001 80.040001 96.720001 103.38 120.06 135.06 143.39999 151.74001 168.42 185.10001" y="0">Strategies, LLC</tspan></text></g><path d="m73.759 281.83h-41.396v51.539h41.396z" fill="#739dd2"/></g><path d="m252.52 281.83h-75.929v51.539h75.929z" fill="url(#linearGradient89)"/><path d="m153.44 281.83h-55.779v51.539h55.779z" fill="url(#linearGradient111)"/><path d="m384.51 281.83h-108.83v51.539h108.83z" fill="url(#linearGradient135)"/><g transform="translate(776 306.76)"><path d="m0 0-144.16-132.59v265.19z" fill="#80bae5"/></g></g></svg>
