<?xml version="1.0" encoding="UTF-8"?>
<!-- Created with Inkscape (http://www.inkscape.org/) -->
<svg width="1056" height="816" version="1.1" viewBox="0 0 1056 816" xml:space="preserve" xmlns="http://www.w3.org/2000/svg"><defs><linearGradient id="linearGradient868" x2="1" gradientTransform="matrix(228.04 0 0 -228.04 405.47 307.6)" gradientUnits="userSpaceOnUse"><stop stop-color="#b5d7f2" offset="0"/><stop stop-color="#b5d7f2" offset=".0035963"/><stop stop-color="#80bae5" offset=".51074"/><stop stop-color="#80bae5" offset="1"/></linearGradient><clipPath id="clipPath894"><path d="m0 612h792v-612h-792z"/></clipPath><linearGradient id="linearGradient920" x2="1" gradientTransform="matrix(-75.928 0 0 75.928 252.52 307.6)" gradientUnits="userSpaceOnUse"><stop stop-color="#b4d5f0" offset="0"/><stop stop-color="#90b8e2" offset=".46359"/><stop stop-color="#90b8e2" offset="1"/></linearGradient><linearGradient id="linearGradient942" x2="1" gradientTransform="matrix(55.779 0 0 -55.779 97.664 307.6)" gradientUnits="userSpaceOnUse"><stop stop-color="#739dd2" offset="0"/><stop stop-color="#91b8e1" offset=".91264"/><stop stop-color="#91b8e1" offset="1"/></linearGradient><linearGradient id="linearGradient966" x2="1" gradientTransform="matrix(-108.83 0 0 108.83 384.51 307.6)" gradientUnits="userSpaceOnUse"><stop stop-color="#b5d7f2" offset="0"/><stop stop-color="#b5d7f2" offset=".0035963"/><stop stop-color="#b4d5f0" offset=".66435"/><stop stop-color="#b4d5f0" offset="1"/></linearGradient><clipPath id="clipPath976"><path d="m0 612h792v-612h-792z"/></clipPath></defs><g transform="matrix(1.3333 0 0 -1.3333 0 816)"><path d="m633.52 281.83h-228.04v51.539h228.04z" fill="url(#linearGradient868)"/><g font-family="Helvetica"><text transform="matrix(1 0 0 -1 26.79 346.11)" fill="#d5d5d5" font-size="82px"><tspan x="0 102.008 202.95 299.87399" y="0">EVER</tspan></text><text transform="matrix(1 0 0 -1 404.47 348.1)" fill="#d5d5d5" font-size="58px"><tspan x="0 36.888 70.585999 91.349998 134.67599 168.37399 189.138" y="0">Forward</tspan></text><text transform="matrix(1 0 0 -1 418.1 298.26)" fill="#231f20" font-size="30px"><tspan x="0 20.01 28.35 38.34 55.02 63.360001 80.040001 96.720001 103.38 120.06 135.06 143.39999 151.74001 168.42 185.10001" y="0">Strategies, LLC</tspan></text><text transform="matrix(1 0 0 -1 30.79 261.32)" fill="#d5d5d5" font-size="16px"><tspan x="0 9.8719997 19.743999 31.392 39.487999 50.240002 59.216 62.863998 74.512001 85.264 95.136002 105.6096 115.2 118.848 128.72 132.368 142.24001 145.888 157.536 180.24001 190.112 199.98399 210.73599 220.608 230.48 239.45599 243.104 254.752 265.504 275.37601 282.88959 286.5376 297.28961 307.16159 317.0336 327.78561 334.7056 343.68161" y="0">EVOLUTIONARY VISIONEXCEPTIONAL RESULTS</tspan></text></g><g clip-path="url(#clipPath894)"><g transform="translate(206.93 261.32)"><path d="m0 0h-2.73c-0.823 0-1.49 0.667-1.49 1.489v9.286c0 0.824 0.667 1.49 1.49 1.49h2.73c0.822 0 1.489-0.666 1.489-1.49v-9.286c0-0.822-0.667-1.489-1.489-1.489" fill="#90b8e2"/></g><path d="m73.759 281.83h-41.396v51.539h41.396z" fill="#739dd2"/></g><path d="m176.59 281.83h75.929v51.538h-75.929z" fill="url(#linearGradient920)"/><path d="m97.664 281.83h55.779v51.538h-55.779z" fill="url(#linearGradient942)"/><path d="m275.68 281.83h108.83v51.538h-108.83z" fill="url(#linearGradient966)"/><g clip-path="url(#clipPath976)"><g transform="translate(776 306.76)"><path d="m0 0-144.16-132.59v265.19z" fill="#80bae5"/></g></g></g></svg>
